<svg xmlns="http://www.w3.org/2000/svg" width="1200" height="675" viewBox="0 0 1200 675" role="img" aria-labelledby="title desc">
  <title id="title">Representative NWS ASOS station graphic</title>
  <desc id="desc">Clean local stand-in image for a National Weather Service ASOS surface weather station.</desc>
  <defs>
    <linearGradient id="sky" x1="0" y1="0" x2="0" y2="1">
      <stop offset="0%" stop-color="#8cc8ff"/>
      <stop offset="100%" stop-color="#dff2ff"/>
    </linearGradient>
  </defs>
  <rect width="1200" height="675" fill="url(#sky)"/>
  <rect y="520" width="1200" height="155" fill="#7fbe6f"/>
  <rect y="555" width="1200" height="120" fill="#6db05a"/>
  <g opacity="0.9" fill="#ffffff">
    <ellipse cx="170" cy="120" rx="85" ry="28"/>
    <ellipse cx="240" cy="145" rx="65" ry="22"/>
    <ellipse cx="845" cy="110" rx="95" ry="30"/>
    <ellipse cx="930" cy="145" rx="70" ry="24"/>
  </g>
  <g stroke="#5d6d7e" stroke-width="8" fill="none">
    <line x1="600" y1="500" x2="600" y2="170"/>
    <line x1="430" y1="520" x2="430" y2="330"/>
    <line x1="770" y1="520" x2="770" y2="310"/>
    <line x1="270" y1="520" x2="270" y2="380"/>
    <line x1="945" y1="520" x2="945" y2="360"/>
  </g>
  <g fill="#f8f9fa" stroke="#6c757d" stroke-width="5">
    <rect x="540" y="370" width="120" height="90" rx="8"/>
    <rect x="395" y="390" width="70" height="60" rx="6"/>
    <rect x="740" y="395" width="55" height="95" rx="6"/>
    <rect x="250" y="420" width="40" height="70" rx="6"/>
    <rect x="925" y="395" width="45" height="95" rx="6"/>
  </g>
  <g stroke="#495057" stroke-width="7" stroke-linecap="round">
    <line x1="570" y1="170" x2="635" y2="170"/>
    <line x1="620" y1="170" x2="650" y2="140"/>
    <line x1="650" y1="140" x2="650" y2="115"/>
    <circle cx="651" cy="108" r="10" fill="#dee2e6"/>
    <circle cx="571" cy="170" r="8" fill="#dee2e6"/>
    <line x1="430" y1="330" x2="390" y2="305"/>
    <line x1="430" y1="330" x2="470" y2="305"/>
    <circle cx="390" cy="305" r="10" fill="#dee2e6"/>
    <circle cx="470" cy="305" r="10" fill="#dee2e6"/>
    <line x1="945" y1="360" x2="985" y2="335"/>
    <circle cx="985" cy="335" r="10" fill="#dee2e6"/>
    <line x1="770" y1="310" x2="770" y2="270"/>
    <rect x="754" y="238" width="32" height="32" rx="4" fill="#dee2e6"/>
  </g>
  <g fill="#2f3e46" font-family="Arial, Helvetica, sans-serif">
    <text x="60" y="610" font-size="42" font-weight="700">Representative NWS ASOS station graphic</text>
    <text x="60" y="650" font-size="24">Local pack asset for CSAPI metadata. Official photo source is listed in assets/official_image_reference.txt.</text>
  </g>
</svg>
